/* XPM */
static char * close_inactive_xpm[] = {
"40 40 50 1",
" 	c None",
".	c #111215",
"+	c #353B44",
"@	c #2F343B",
"#	c #2E333A",
"$	c #2A2E35",
"%	c #272B32",
"&	c #252A30",
"*	c #252930",
"=	c #282C33",
"-	c #23272E",
";	c #22262C",
">	c #21252B",
",	c #20242A",
"'	c #2B3036",
")	c #22262D",
"!	c #2A2F35",
"~	c #24282F",
"{	c #2C3037",
"]	c #565C65",
"^	c #2B2F35",
"/	c #2C3036",
"(	c #565C64",
"_	c #2E3239",
":	c #4F555D",
"<	c #676D76",
"[	c #5F666E",
"}	c #2B2F36",
"|	c #61666E",
"1	c #4F545C",
"2	c #292E34",
"3	c #21252C",
"4	c #535960",
"5	c #60646D",
"6	c #292E35",
"7	c #5F666F",
"8	c #525860",
"9	c #545861",
"0	c #5E656D",
"a	c #2A2D34",
"b	c #60656E",
"c	c #535861",
"d	c #535961",
"e	c #5E646D",
"f	c #20252B",
"g	c #535A61",
"h	c #51575F",
"i	c #52565E",
"j	c #52585F",
"k	c #2C3137",
"........................................",
"++++++++++++++++++++++++++++++++++++++++",
"@@@@@@@@@@@@@@@@@@@@@@@@@@@@@@@@@@@@@@@@",
"@@@@@@@@@@@@@@@@@@@@@@@@@@@@@@@@@@@@@@@@",
"@@@@@@@@@@@@@@@@@@@@@@@@@@@@@@@@@@@@@@@@",
"@@@@@@@@@@@@@@@@@@@@@@@@@@@@@@@@@@@@@@@@",
"@@@@@@@@@@@@@@@@@@@@@@@@@@@@@@@@@@@@@@@@",
"@@@@@@@@@@@@@@@@@@@@@@@@@@@@@@@@@@@@@@@@",
"@@@@@@@@@@@@@@@#$%&**&%$#@@@@@@@@@@@@@@@",
"@@@@@@@@@@@@@#=*-;>,,>;-*=#@@@@@@@@@@@@@",
"@@@@@@@@@@@@'&)>,,,,,,,,>)&'@@@@@@@@@@@@",
"@@@@@@@@@@@!~>,,,,,,,,,,,,>~!@@@@@@@@@@@",
"@@@@@@@@@@'~>,,,,,,,,,,,,,,>~'@@@@@@@@@@",
"@@@@@@@@@#&>,,,,,,,,,,,,,,,,>&#@@@@@@@@@",
"@@@@@@@@@=),,,{]^,,,,,,/(/,,,)=@@@@@@@@@",
"@@@@@@@@_*>,,,:<[!,,,,}|<1,,,>*_@@@@@@@@",
"@@@@@@@@2-,,,,34<56,,^7<83,,,,-2@@@@@@@@",
"@@@@@@@@*;,,,,,39<0a^b<c3,,,,,;*@@@@@@@@",
"@@@@@@@@;>,,,,,,;d<e[<43,,,,,,>;@@@@@@@@",
"@@@@@@@@f,,,,,,,,;g<<43,,,,,,,,f@@@@@@@@",
"@@@@@@@@f,,,,,,,,38<<h>,,,,,,,,f@@@@@@@@",
"@@@@@@@@;>,,,,,,38<||<i>,,,,,,>;@@@@@@@@",
"@@@@@@@@*;,,,,,38<|/{|<h>,,,,,;*@@@@@@@@",
"@@@@@@@@2-,,,,38<7},,{|<j>,,,,-2@@@@@@@@",
"@@@@@@@@_*>,,,:<7},,,,{|<1,,,>*_@@@@@@@@",
"@@@@@@@@@=),,,k(^,,,,,,{(/,,,)=@@@@@@@@@",
"@@@@@@@@@#&>,,,,,,,,,,,,,,,,>&#@@@@@@@@@",
"@@@@@@@@@@'~>,,,,,,,,,,,,,,>~'@@@@@@@@@@",
"@@@@@@@@@@@!~>,,,,,,,,,,,,>~!@@@@@@@@@@@",
"@@@@@@@@@@@@'&)>,,,,,,,,>)&'@@@@@@@@@@@@",
"@@@@@@@@@@@@@#=*-;>,,>;-*=#@@@@@@@@@@@@@",
"@@@@@@@@@@@@@@@#$%&**&%$#@@@@@@@@@@@@@@@",
"@@@@@@@@@@@@@@@@@@@@@@@@@@@@@@@@@@@@@@@@",
"@@@@@@@@@@@@@@@@@@@@@@@@@@@@@@@@@@@@@@@@",
"@@@@@@@@@@@@@@@@@@@@@@@@@@@@@@@@@@@@@@@@",
"@@@@@@@@@@@@@@@@@@@@@@@@@@@@@@@@@@@@@@@@",
"@@@@@@@@@@@@@@@@@@@@@@@@@@@@@@@@@@@@@@@@",
"@@@@@@@@@@@@@@@@@@@@@@@@@@@@@@@@@@@@@@@@",
"@@@@@@@@@@@@@@@@@@@@@@@@@@@@@@@@@@@@@@@@",
"@@@@@@@@@@@@@@@@@@@@@@@@@@@@@@@@@@@@@@@@"};
