/* XPM */
static char * close_pressed_xpm[] = {
"40 40 62 1",
" 	c None",
".	c #111215",
"+	c #353B44",
"@	c #2F343B",
"#	c #39333A",
"$	c #692F37",
"%	c #8C2C34",
"&	c #9E2B33",
"*	c #A42A33",
"=	c #832D35",
"-	c #A12B33",
";	c #B82931",
">	c #C82830",
",	c #D7272F",
"'	c #E0262F",
")	c #5A3038",
"!	c #C42831",
"~	c #D9262F",
"{	c #E6262F",
"]	c #662F37",
"^	c #AF2A32",
"/	c #D42730",
"(	c #E5262F",
"_	c #D62730",
":	c #E94D54",
"<	c #F8CDCF",
"[	c #E9474F",
"}	c #E94A52",
"|	c #F8CED0",
"1	c #E94C53",
"2	c #3A333A",
"3	c #F6B9BC",
"4	c #FFFFFF",
"5	c #FBE9EA",
"6	c #E8464D",
"7	c #E94951",
"8	c #FCECEC",
"9	c #F6B8BB",
"0	c #712E36",
"a	c #E52B34",
"b	c #F7C3C5",
"c	c #FBE8E9",
"d	c #E8454D",
"e	c #E94850",
"f	c #FBEBEC",
"g	c #F7C1C4",
"h	c #A32B33",
"i	c #F7C4C6",
"j	c #FBE7E8",
"k	c #E8434B",
"l	c #FBEAEB",
"m	c #F7C2C5",
"n	c #E62C35",
"o	c #F7C5C7",
"p	c #DA262F",
"q	c #F7C6C8",
"r	c #F7BFC1",
"s	c #E52B33",
"t	c #F6BEC1",
"u	c #E94B52",
"v	c #F7C0C2",
"w	c #E94D55",
"........................................",
"++++++++++++++++++++++++++++++++++++++++",
"@@@@@@@@@@@@@@@@@@@@@@@@@@@@@@@@@@@@@@@@",
"@@@@@@@@@@@@@@@@@@@@@@@@@@@@@@@@@@@@@@@@",
"@@@@@@@@@@@@@@@@@@@@@@@@@@@@@@@@@@@@@@@@",
"@@@@@@@@@@@@@@@@@@@@@@@@@@@@@@@@@@@@@@@@",
"@@@@@@@@@@@@@@@@@@@@@@@@@@@@@@@@@@@@@@@@",
"@@@@@@@@@@@@@@@@@@@@@@@@@@@@@@@@@@@@@@@@",
"@@@@@@@@@@@@@@@#$%&**&%$#@@@@@@@@@@@@@@@",
"@@@@@@@@@@@@@#=-;>,'',>;-=#@@@@@@@@@@@@@",
"@@@@@@@@@@@@)-!~{{{{{{{{~!-)@@@@@@@@@@@@",
"@@@@@@@@@@@]^/({{{{{{{{{{(/^]@@@@@@@@@@@",
"@@@@@@@@@@)^_{{{{{{{{{{{{{{_^)@@@@@@@@@@",
"@@@@@@@@@#-/{{{{{{{{{{{{{{{{/-#@@@@@@@@@",
"@@@@@@@@@=!({{:<[{{{{{{}|1{{(!=@@@@@@@@@",
"@@@@@@@@2-~{{{3456{{{{7849{{{~-2@@@@@@@@",
"@@@@@@@@0;{{{{ab4cd{{ef4ga{{{{;0@@@@@@@@",
"@@@@@@@@h>{{{{{ai4jk[l4ma{{{{{>h@@@@@@@@",
"@@@@@@@@>,{{{{{{no4j54ba{{{{{{,>@@@@@@@@",
"@@@@@@@@p'{{{{{{{nq44ba{{{{{{{'p@@@@@@@@",
"@@@@@@@@p'{{{{{{{ag44rs{{{{{{{'p@@@@@@@@",
"@@@@@@@@>,{{{{{{ag4884ts{{{{{{,>@@@@@@@@",
"@@@@@@@@h>{{{{{ag48}u84rs{{{{{>h@@@@@@@@",
"@@@@@@@@0;{{{{ag4f7{{u84vs{{{{;0@@@@@@@@",
"@@@@@@@@2-~{{{34f7{{{{u849{{{~-2@@@@@@@@",
"@@@@@@@@@=!({{w|e{{{{{{u|1{{(!=@@@@@@@@@",
"@@@@@@@@@#-/{{{{{{{{{{{{{{{{/-#@@@@@@@@@",
"@@@@@@@@@@)^_{{{{{{{{{{{{{{_^)@@@@@@@@@@",
"@@@@@@@@@@@]^/({{{{{{{{{{(/^]@@@@@@@@@@@",
"@@@@@@@@@@@@)-!~{{{{{{{{~!-)@@@@@@@@@@@@",
"@@@@@@@@@@@@@#=-;>,'',>;-=#@@@@@@@@@@@@@",
"@@@@@@@@@@@@@@@#$%&**&%$#@@@@@@@@@@@@@@@",
"@@@@@@@@@@@@@@@@@@@@@@@@@@@@@@@@@@@@@@@@",
"@@@@@@@@@@@@@@@@@@@@@@@@@@@@@@@@@@@@@@@@",
"@@@@@@@@@@@@@@@@@@@@@@@@@@@@@@@@@@@@@@@@",
"@@@@@@@@@@@@@@@@@@@@@@@@@@@@@@@@@@@@@@@@",
"@@@@@@@@@@@@@@@@@@@@@@@@@@@@@@@@@@@@@@@@",
"@@@@@@@@@@@@@@@@@@@@@@@@@@@@@@@@@@@@@@@@",
"@@@@@@@@@@@@@@@@@@@@@@@@@@@@@@@@@@@@@@@@",
"@@@@@@@@@@@@@@@@@@@@@@@@@@@@@@@@@@@@@@@@"};
