/* XPM */
static char * close_active_xpm[] = {
"40 40 53 1",
" 	c None",
".	c #111215",
"+	c #353B44",
"@	c #2F343B",
"#	c #39363D",
"$	c #684148",
"%	c #8B4950",
"&	c #9D4D54",
"*	c #A34F56",
"=	c #82474E",
"-	c #A04E55",
";	c #B7535A",
">	c #C6575E",
",	c #D55A61",
"'	c #DE5C63",
")	c #5A3E45",
"!	c #9F4E55",
"~	c #C3565D",
"{	c #D75B62",
"]	c #E45E65",
"^	c #664047",
"/	c #AE5158",
"(	c #D25960",
"_	c #E35D64",
":	c #D45A61",
"<	c #3A363D",
"[	c #E9858A",
"}	c #F8DDDE",
"|	c #EB8D92",
"1	c #70434A",
"2	c #F2B5B8",
"3	c #FFFFFF",
"4	c #FDFAFA",
"5	c #EA8B90",
"6	c #EB8C91",
"7	c #A14E55",
"8	c #F2B6B9",
"9	c #FDF9F9",
"0	c #EA8A8F",
"a	c #F2B5B9",
"b	c #F2B7BA",
"c	c #D85B62",
"d	c #F1B2B6",
"e	c #F1B3B7",
"f	c #FDFBFB",
"g	c #F1B3B6",
"h	c #F2B4B7",
"i	c #EB9196",
"j	c #EB9296",
"k	c #EB9095",
"l	c #FDFAFB",
"m	c #EB8E93",
"n	c #F8DEDF",
"........................................",
"++++++++++++++++++++++++++++++++++++++++",
"@@@@@@@@@@@@@@@@@@@@@@@@@@@@@@@@@@@@@@@@",
"@@@@@@@@@@@@@@@@@@@@@@@@@@@@@@@@@@@@@@@@",
"@@@@@@@@@@@@@@@@@@@@@@@@@@@@@@@@@@@@@@@@",
"@@@@@@@@@@@@@@@@@@@@@@@@@@@@@@@@@@@@@@@@",
"@@@@@@@@@@@@@@@@@@@@@@@@@@@@@@@@@@@@@@@@",
"@@@@@@@@@@@@@@@@@@@@@@@@@@@@@@@@@@@@@@@@",
"@@@@@@@@@@@@@@@#$%&**&%$#@@@@@@@@@@@@@@@",
"@@@@@@@@@@@@@#=-;>,'',>;-=#@@@@@@@@@@@@@",
"@@@@@@@@@@@@)!~{]]]]]]]]{~!)@@@@@@@@@@@@",
"@@@@@@@@@@@^/(_]]]]]]]]]]_(/^@@@@@@@@@@@",
"@@@@@@@@@@)/:]]]]]]]]]]]]]]:/)@@@@@@@@@@",
"@@@@@@@@@#!(]]]]]]]]]]]]]]]](!#@@@@@@@@@",
"@@@@@@@@@=~_]]]]]]]]]]]]]]]]_~=@@@@@@@@@",
"@@@@@@@@<-{]]]][}|]]]]|}[]]]]{-<@@@@@@@@",
"@@@@@@@@1;]]]]]2345]]6432]]]]];1@@@@@@@@",
"@@@@@@@@7>]]]]]]8390593a]]]]]]>7@@@@@@@@",
"@@@@@@@@>,]]]]]]]b39938]]]]]]],>@@@@@@@@",
"@@@@@@@@c']]]]]]]]b33b]]]]]]]]'c@@@@@@@@",
"@@@@@@@@c']]]]]]]]d33d]]]]]]]]'c@@@@@@@@",
"@@@@@@@@>,]]]]]]]e3ff3g]]]]]]],>@@@@@@@@",
"@@@@@@@@7>]]]]]]h3fijf3e]]]]]]>7@@@@@@@@",
"@@@@@@@@1;]]]]]23fk]]kl3h]]]]];1@@@@@@@@",
"@@@@@@@@<-{]]]][}k]]]]mn[]]]]{-<@@@@@@@@",
"@@@@@@@@@=~_]]]]]]]]]]]]]]]]_~=@@@@@@@@@",
"@@@@@@@@@#!(]]]]]]]]]]]]]]]](!#@@@@@@@@@",
"@@@@@@@@@@)/:]]]]]]]]]]]]]]:/)@@@@@@@@@@",
"@@@@@@@@@@@^/(_]]]]]]]]]]_(/^@@@@@@@@@@@",
"@@@@@@@@@@@@)!~{]]]]]]]]{~!)@@@@@@@@@@@@",
"@@@@@@@@@@@@@#=-;>,'',>;-=#@@@@@@@@@@@@@",
"@@@@@@@@@@@@@@@#$%&**&%$#@@@@@@@@@@@@@@@",
"@@@@@@@@@@@@@@@@@@@@@@@@@@@@@@@@@@@@@@@@",
"@@@@@@@@@@@@@@@@@@@@@@@@@@@@@@@@@@@@@@@@",
"@@@@@@@@@@@@@@@@@@@@@@@@@@@@@@@@@@@@@@@@",
"@@@@@@@@@@@@@@@@@@@@@@@@@@@@@@@@@@@@@@@@",
"@@@@@@@@@@@@@@@@@@@@@@@@@@@@@@@@@@@@@@@@",
"@@@@@@@@@@@@@@@@@@@@@@@@@@@@@@@@@@@@@@@@",
"@@@@@@@@@@@@@@@@@@@@@@@@@@@@@@@@@@@@@@@@",
"@@@@@@@@@@@@@@@@@@@@@@@@@@@@@@@@@@@@@@@@"};
