/* XPM */
static char * close_prelight_xpm[] = {
"40 40 60 1",
" 	c None",
".	c #111215",
"+	c #353B44",
"@	c #2F343B",
"#	c #3A383F",
"$	c #6D4C52",
"%	c #935A60",
"&	c #A76268",
"*	c #AD646A",
"=	c #8A575D",
"-	c #AA6369",
";	c #C36D72",
">	c #D47379",
",	c #E47A7F",
"'	c #ED7D82",
")	c #5E464C",
"!	c #A96369",
"~	c #D07277",
"{	c #E67A80",
"]	c #F48085",
"^	c #6B4B51",
"/	c #B9696E",
"(	c #E0787D",
"_	c #F37F84",
":	c #E3797E",
"<	c #F5969A",
"[	c #FBE1E2",
"}	c #F49397",
"|	c #F59599",
"1	c #FBE2E3",
"2	c #3B383F",
"3	c #FAD5D7",
"4	c #FFFFFF",
"5	c #FDF2F2",
"6	c #F49296",
"7	c #F59498",
"8	c #FDF3F4",
"9	c #764F55",
"0	c #F38387",
"a	c #FBDBDD",
"b	c #FDF1F2",
"c	c #F49498",
"d	c #FDF3F3",
"e	c #FBDADC",
"f	c #AC646A",
"g	c #FBDCDD",
"h	c #FCF1F1",
"i	c #F49195",
"j	c #FDF2F3",
"k	c #FBDBDC",
"l	c #F38388",
"m	c #FBDCDE",
"n	c #FCF0F1",
"o	c #E77B80",
"p	c #FBDDDE",
"q	c #FBD9DA",
"r	c #F38287",
"s	c #FBD8DA",
"t	c #FBD9DB",
"u	c #F5969B",
"........................................",
"++++++++++++++++++++++++++++++++++++++++",
"@@@@@@@@@@@@@@@@@@@@@@@@@@@@@@@@@@@@@@@@",
"@@@@@@@@@@@@@@@@@@@@@@@@@@@@@@@@@@@@@@@@",
"@@@@@@@@@@@@@@@@@@@@@@@@@@@@@@@@@@@@@@@@",
"@@@@@@@@@@@@@@@@@@@@@@@@@@@@@@@@@@@@@@@@",
"@@@@@@@@@@@@@@@@@@@@@@@@@@@@@@@@@@@@@@@@",
"@@@@@@@@@@@@@@@@@@@@@@@@@@@@@@@@@@@@@@@@",
"@@@@@@@@@@@@@@@#$%&**&%$#@@@@@@@@@@@@@@@",
"@@@@@@@@@@@@@#=-;>,'',>;-=#@@@@@@@@@@@@@",
"@@@@@@@@@@@@)!~{]]]]]]]]{~!)@@@@@@@@@@@@",
"@@@@@@@@@@@^/(_]]]]]]]]]]_(/^@@@@@@@@@@@",
"@@@@@@@@@@)/:]]]]]]]]]]]]]]:/)@@@@@@@@@@",
"@@@@@@@@@#!(]]]]]]]]]]]]]]]](!#@@@@@@@@@",
"@@@@@@@@@=~_]]<[}]]]]]]|1<]]_~=@@@@@@@@@",
"@@@@@@@@2-{]]]3456]]]]7843]]]{-2@@@@@@@@",
"@@@@@@@@9;]]]]0a4b6]]cd4e0]]]];9@@@@@@@@",
"@@@@@@@@f>]]]]]0g4hi}j4k0]]]]]>f@@@@@@@@",
"@@@@@@@@>,]]]]]]lm4n54a0]]]]]],>@@@@@@@@",
"@@@@@@@@o']]]]]]]lp44a0]]]]]]]'o@@@@@@@@",
"@@@@@@@@o']]]]]]]0e44qr]]]]]]]'o@@@@@@@@",
"@@@@@@@@>,]]]]]]0e4884sr]]]]]],>@@@@@@@@",
"@@@@@@@@f>]]]]]0e48||84qr]]]]]>f@@@@@@@@",
"@@@@@@@@9;]]]]0e4d7]]|84tr]]]];9@@@@@@@@",
"@@@@@@@@2-{]]]34d7]]]]|843]]]{-2@@@@@@@@",
"@@@@@@@@@=~_]]u1c]]]]]]|1<]]_~=@@@@@@@@@",
"@@@@@@@@@#!(]]]]]]]]]]]]]]]](!#@@@@@@@@@",
"@@@@@@@@@@)/:]]]]]]]]]]]]]]:/)@@@@@@@@@@",
"@@@@@@@@@@@^/(_]]]]]]]]]]_(/^@@@@@@@@@@@",
"@@@@@@@@@@@@)!~{]]]]]]]]{~!)@@@@@@@@@@@@",
"@@@@@@@@@@@@@#=-;>,'',>;-=#@@@@@@@@@@@@@",
"@@@@@@@@@@@@@@@#$%&**&%$#@@@@@@@@@@@@@@@",
"@@@@@@@@@@@@@@@@@@@@@@@@@@@@@@@@@@@@@@@@",
"@@@@@@@@@@@@@@@@@@@@@@@@@@@@@@@@@@@@@@@@",
"@@@@@@@@@@@@@@@@@@@@@@@@@@@@@@@@@@@@@@@@",
"@@@@@@@@@@@@@@@@@@@@@@@@@@@@@@@@@@@@@@@@",
"@@@@@@@@@@@@@@@@@@@@@@@@@@@@@@@@@@@@@@@@",
"@@@@@@@@@@@@@@@@@@@@@@@@@@@@@@@@@@@@@@@@",
"@@@@@@@@@@@@@@@@@@@@@@@@@@@@@@@@@@@@@@@@",
"@@@@@@@@@@@@@@@@@@@@@@@@@@@@@@@@@@@@@@@@"};
