/* XPM */
static char * hide_active_xpm[] = {
"40 40 22 1",
" 	c None",
".	c #111215",
"+	c #353B44",
"@	c #2F343B",
"#	c #2E333A",
"$	c #2A2E35",
"%	c #272B32",
"&	c #252A30",
"*	c #252930",
"=	c #282C33",
"-	c #23272E",
";	c #22262C",
">	c #21252B",
",	c #20242A",
"'	c #2B3036",
")	c #22262D",
"!	c #2A2F35",
"~	c #24282F",
"{	c #2E3239",
"]	c #292E34",
"^	c #20252B",
"/	c #939CA8",
"........................................",
"++++++++++++++++++++++++++++++++++++++++",
"@@@@@@@@@@@@@@@@@@@@@@@@@@@@@@@@@@@@@@@@",
"@@@@@@@@@@@@@@@@@@@@@@@@@@@@@@@@@@@@@@@@",
"@@@@@@@@@@@@@@@@@@@@@@@@@@@@@@@@@@@@@@@@",
"@@@@@@@@@@@@@@@@@@@@@@@@@@@@@@@@@@@@@@@@",
"@@@@@@@@@@@@@@@@@@@@@@@@@@@@@@@@@@@@@@@@",
"@@@@@@@@@@@@@@@@@@@@@@@@@@@@@@@@@@@@@@@@",
"@@@@@@@@@@@@@@@#$%&**&%$#@@@@@@@@@@@@@@@",
"@@@@@@@@@@@@@#=*-;>,,>;-*=#@@@@@@@@@@@@@",
"@@@@@@@@@@@@'&)>,,,,,,,,>)&'@@@@@@@@@@@@",
"@@@@@@@@@@@!~>,,,,,,,,,,,,>~!@@@@@@@@@@@",
"@@@@@@@@@@'~>,,,,,,,,,,,,,,>~'@@@@@@@@@@",
"@@@@@@@@@#&>,,,,,,,,,,,,,,,,>&#@@@@@@@@@",
"@@@@@@@@@=),,,,,,,,,,,,,,,,,,)=@@@@@@@@@",
"@@@@@@@@{*>,,,,,,,,,,,,,,,,,,>*{@@@@@@@@",
"@@@@@@@@]-,,,,,,,,,,,,,,,,,,,,-]@@@@@@@@",
"@@@@@@@@*;,,,,,,,,,,,,,,,,,,,,;*@@@@@@@@",
"@@@@@@@@;>,,,,,,,,,,,,,,,,,,,,>;@@@@@@@@",
"@@@@@@@@^,,,,,////////////,,,,,^@@@@@@@@",
"@@@@@@@@^,,,,,////////////,,,,,^@@@@@@@@",
"@@@@@@@@;>,,,,,,,,,,,,,,,,,,,,>;@@@@@@@@",
"@@@@@@@@*;,,,,,,,,,,,,,,,,,,,,;*@@@@@@@@",
"@@@@@@@@]-,,,,,,,,,,,,,,,,,,,,-]@@@@@@@@",
"@@@@@@@@{*>,,,,,,,,,,,,,,,,,,>*{@@@@@@@@",
"@@@@@@@@@=),,,,,,,,,,,,,,,,,,)=@@@@@@@@@",
"@@@@@@@@@#&>,,,,,,,,,,,,,,,,>&#@@@@@@@@@",
"@@@@@@@@@@'~>,,,,,,,,,,,,,,>~'@@@@@@@@@@",
"@@@@@@@@@@@!~>,,,,,,,,,,,,>~!@@@@@@@@@@@",
"@@@@@@@@@@@@'&)>,,,,,,,,>)&'@@@@@@@@@@@@",
"@@@@@@@@@@@@@#=*-;>,,>;-*=#@@@@@@@@@@@@@",
"@@@@@@@@@@@@@@@#$%&**&%$#@@@@@@@@@@@@@@@",
"@@@@@@@@@@@@@@@@@@@@@@@@@@@@@@@@@@@@@@@@",
"@@@@@@@@@@@@@@@@@@@@@@@@@@@@@@@@@@@@@@@@",
"@@@@@@@@@@@@@@@@@@@@@@@@@@@@@@@@@@@@@@@@",
"@@@@@@@@@@@@@@@@@@@@@@@@@@@@@@@@@@@@@@@@",
"@@@@@@@@@@@@@@@@@@@@@@@@@@@@@@@@@@@@@@@@",
"@@@@@@@@@@@@@@@@@@@@@@@@@@@@@@@@@@@@@@@@",
"@@@@@@@@@@@@@@@@@@@@@@@@@@@@@@@@@@@@@@@@",
"@@@@@@@@@@@@@@@@@@@@@@@@@@@@@@@@@@@@@@@@"};
