/* XPM */
static char * maximize_pressed_xpm[] = {
"40 40 46 1",
" 	c None",
".	c #111215",
"+	c #353B44",
"@	c #2F343B",
"#	c #2F363F",
"$	c #313B48",
"%	c #344356",
"&	c #374A63",
"*	c #384F6A",
"=	c #303842",
"-	c #344254",
";	c #374D68",
">	c #395679",
",	c #3B5D85",
"'	c #3D6492",
")	c #3F699A",
"!	c #2F353D",
"~	c #333F4E",
"{	c #374C66",
"]	c #3B5C83",
"^	c #3F6899",
"/	c #4474AE",
"(	c #477DBC",
"_	c #4B85CA",
":	c #4D8AD2",
"<	c #2F363E",
"[	c #334153",
"}	c #385372",
"|	c #3E6797",
"1	c #467BB9",
"2	c #4B87CC",
"3	c #4F8ED8",
"4	c #385474",
"5	c #426FA5",
"6	c #4A83C7",
"7	c #4E8DD7",
"8	c #4B84C9",
"9	c #96BCE9",
"0	c #DDEAF9",
"a	c #EEF5FC",
"b	c #FFFFFF",
"c	c #374D67",
"d	c #385678",
"e	c #3A5C84",
"f	c #3C6391",
"g	c #3D6798",
"........................................",
"++++++++++++++++++++++++++++++++++++++++",
"@@@@@@@@@@@@@@@@@@@@@@@@@@@@@@@@@@@@@@@@",
"@@@@@@@@@@@@@@@@@@@@@@@@@@@@@@@@@@@@@@@@",
"@@@@@@@@@@@@@@@@@@@@@@@@@@@@@@@@@@@@@@@@",
"@@@@@@@@@@@@@@@@@@@@@@@@@@@@@@@@@@@@@@@@",
"@@@@@@@@@@@@@@@@@@@@@@@@@@@@@@@@@@@@@@@@",
"@@@@@@@@@@@@@@@#$%&**&%$#@@@@@@@@@@@@@@@",
"@@@@@@@@@@@@@=-;>,'))',>;-=@@@@@@@@@@@@@",
"@@@@@@@@@@@!~{]^/(_::_(/^]{~!@@@@@@@@@@@",
"@@@@@@@@@@<[}|123333333321|}[<@@@@@@@@@@",
"@@@@@@@@@![456733333333337654[!@@@@@@@@@",
"@@@@@@@@@~}583333333333333385}~@@@@@@@@@",
"@@@@@@@@={|633333333333333336|{=@@@@@@@@",
"@@@@@@@@-]173333390abbba003371]-@@@@@@@@",
"@@@@@@@#c^2333333390abbba03332^c#@@@@@@@",
"@@@@@@@$d/33333333390abbba3333/d$@@@@@@@",
"@@@@@@@%e(333393333390abbb3333(e%@@@@@@@",
"@@@@@@@&f_3333093333390abb3333_f&@@@@@@@",
"@@@@@@@*g:3333a093333390ab3333:g*@@@@@@@",
"@@@@@@@*g:3333ba093333390a3333:g*@@@@@@@",
"@@@@@@@&f_3333bba0933333903333_f&@@@@@@@",
"@@@@@@@%e(3333bbba093333393333(e%@@@@@@@",
"@@@@@@@$d/3333abbba09333333333/d$@@@@@@@",
"@@@@@@@#c^23330abbba0933333332^c#@@@@@@@",
"@@@@@@@@-]173300abbba093333371]-@@@@@@@@",
"@@@@@@@@={|633333333333333336|{=@@@@@@@@",
"@@@@@@@@@~}583333333333333385}~@@@@@@@@@",
"@@@@@@@@@![456733333333337654[!@@@@@@@@@",
"@@@@@@@@@@<[}|123333333321|}[<@@@@@@@@@@",
"@@@@@@@@@@@!~{]^/(_::_(/^]{~!@@@@@@@@@@@",
"@@@@@@@@@@@@@=-;>,'))',>;-=@@@@@@@@@@@@@",
"@@@@@@@@@@@@@@@#$%&**&%$#@@@@@@@@@@@@@@@",
"@@@@@@@@@@@@@@@@@@@@@@@@@@@@@@@@@@@@@@@@",
"@@@@@@@@@@@@@@@@@@@@@@@@@@@@@@@@@@@@@@@@",
"@@@@@@@@@@@@@@@@@@@@@@@@@@@@@@@@@@@@@@@@",
"@@@@@@@@@@@@@@@@@@@@@@@@@@@@@@@@@@@@@@@@",
"@@@@@@@@@@@@@@@@@@@@@@@@@@@@@@@@@@@@@@@@",
"@@@@@@@@@@@@@@@@@@@@@@@@@@@@@@@@@@@@@@@@",
"@@@@@@@@@@@@@@@@@@@@@@@@@@@@@@@@@@@@@@@@"};
