/* XPM */
static char * top_left_active_xpm[] = {
"5 40 4 1",
" 	c None",
".	c #111215",
"+	c #353B44",
"@	c #2F343B",
" ....",
".++++",
".@@@@",
".@@@@",
".@@@@",
".@@@@",
".@@@@",
".@@@@",
".@@@@",
".@@@@",
".@@@@",
".@@@@",
".@@@@",
".@@@@",
".@@@@",
".@@@@",
".@@@@",
".@@@@",
".@@@@",
".@@@@",
".@@@@",
".@@@@",
".@@@@",
".@@@@",
".@@@@",
".@@@@",
".@@@@",
".@@@@",
".@@@@",
".@@@@",
".@@@@",
".@@@@",
".@@@@",
".@@@@",
".@@@@",
".@@@@",
".@@@@",
".@@@@",
".@@@@",
".@@@@"};
